<svg width="48" height="48" viewBox="0 0 48 48" fill="none" xmlns="http://www.w3.org/2000/svg">
      <path d="M40.8382 6L25.5996 15.69L28.0992 9.9L40.8382 6Z" fill="#E17726"/>
      <path d="M7.15967 6L22.3185 15.7675L19.8996 9.9L7.15967 6Z" fill="#E27625"/>
      <path d="M35.1667 29.1667L31.6667 35.5L39.8333 37.8333L42.2083 29.1667H35.1667Z" fill="#E27625"/>
      <path d="M5.8125 29.1667L8.17708 37.8333L16.3333 35.5L12.8542 29.1667H5.8125Z" fill="#E27625"/>
      <path d="M15.8333 18.5L13.6667 22.1667L21.7917 22.5833L21.5 13.5L15.8333 18.5Z" fill="#E27625"/>
      <path d="M32.1667 18.5L26.4167 13.4L26.1667 22.5833L34.3333 22.1667L32.1667 18.5Z" fill="#E27625"/>
      <path d="M16.3333 35.5L21.3333 32.9167L17 29.25L16.3333 35.5Z" fill="#E27625"/>
      <path d="M26.6667 32.9167L31.6667 35.5L31 29.25L26.6667 32.9167Z" fill="#E27625"/>
    </svg>