<svg width="48" height="48" viewBox="0 0 48 48" fill="none" xmlns="http://www.w3.org/2000/svg">
      <path d="M16.064 20.4361C23.382 13.1181 35.6179 13.1181 42.9359 20.4361L43.809 21.3092C44.1955 21.6957 44.1955 22.3217 43.809 22.7082L40.2313 26.2859C40.038 26.4792 39.725 26.4792 39.5317 26.2859L38.3454 25.0995C33.3559 20.11 25.644 20.11 20.6546 25.0995L19.3764 26.3776C19.1832 26.5709 18.8702 26.5709 18.6769 26.3776L15.0992 22.7999C14.7127 22.4134 14.7127 21.7874 15.0992 21.401L16.064 20.4361ZM47.4146 24.8879L50.5729 28.0462C50.9594 28.4327 50.9594 29.0588 50.5729 29.4453L38.2537 41.7644C37.8672 42.1509 37.2412 42.1509 36.8547 41.7644C36.8547 41.7644 36.8547 41.7644 36.8547 41.7644L28.1525 33.0622C28.0559 32.9656 27.8994 32.9656 27.8028 33.0622C27.8028 33.0622 27.8028 33.0622 27.8028 33.0622L19.1006 41.7644C18.7141 42.1509 18.0881 42.1509 17.7016 41.7644C17.7016 41.7644 17.7016 41.7644 17.7016 41.7644L5.3825 29.4453C4.99597 29.0588 4.99597 28.4327 5.3825 28.0462L8.54082 24.8879C8.92735 24.5014 9.55339 24.5014 9.93992 24.8879L18.6421 33.5902C18.7387 33.6867 18.8952 33.6867 18.9918 33.5902C18.9918 33.5902 18.9918 33.5902 18.9918 33.5902L27.694 24.8879C28.0805 24.5014 28.7066 24.5014 29.0931 24.8879C29.0931 24.8879 29.0931 24.8879 29.0931 24.8879L37.7953 33.5902C37.8919 33.6867 38.0484 33.6867 38.145 33.5902L46.8471 24.8879C47.2337 24.5014 47.8597 24.5014 48.2462 24.8879L47.4146 24.8879Z" fill="#3B99FC"/>
    </svg>